<svg width="1280" height="461" viewBox="0 0 1280 461" fill="none" xmlns="http://www.w3.org/2000/svg">
<g clip-path="url(#clip0_141_2)">
<g clip-path="url(#clip1_141_2)">
<g clip-path="url(#clip2_141_2)">
<mask id="mask0_141_2" style="mask-type:luminance" maskUnits="userSpaceOnUse" x="-88" y="0" width="1491" height="461">
<path d="M1403 0H-88V461H1403V0Z" fill="white"/>
</mask>
<g mask="url(#mask0_141_2)">
<path d="M991.602 254.691C984.517 255.256 980.846 264.409 981.55 272.087C982.255 279.766 985.731 286.958 986.603 294.622C986.919 298.454 986.911 302.301 986.567 306.112C986.013 315.261 985.423 324.565 982.431 333.074C979.597 341.147 974.712 348.132 969.545 354.667C959.529 367.319 948.236 378.704 935.861 388.615" stroke="#2F2E41" stroke-width="2"/>
<path d="M1059.86 186.637C1053.06 217.569 1018.88 260.317 990.106 252.151C961.342 243.985 948.879 187.998 955.674 157.066C958.948 142.212 967.565 129.524 979.641 121.793C991.725 114.063 1006.27 111.923 1020.08 115.844C1033.89 119.766 1045.85 129.427 1053.31 142.704C1060.77 155.98 1063.12 171.783 1059.86 186.637Z" fill="#86E3CE"/>
<path d="M993.943 258.975C991.1 255.715 987.756 254.765 983.901 256.125L986.277 245.328L996.32 248.178L993.943 258.975Z" fill="#86E3CE"/>
<path d="M985.168 250.505C986.541 251.798 988.169 252.726 989.921 253.215C991.664 253.704 993.485 253.738 995.237 253.316" stroke="#2F2E41" stroke-width="2"/>
<path opacity="0.4" d="M1031.49 168.55C1037.56 170.272 1043.87 165.323 1045.59 157.497C1047.32 149.671 1043.8 141.931 1037.73 140.209C1031.66 138.488 1025.35 143.436 1023.63 151.262C1021.91 159.089 1025.43 166.829 1031.49 168.55Z" fill="white"/>
<path d="M281.375 253.34C287.588 255.748 289.18 265.618 287.134 272.904C285.09 280.19 280.652 286.274 278.466 293.503C277.473 297.148 276.772 300.894 276.374 304.692C275.181 313.738 273.986 322.944 275.086 332.009C276.13 340.609 279.196 348.686 282.602 356.4C289.2 371.337 297.178 385.378 306.393 398.27" stroke="#2F2E41" stroke-width="2"/>
<path d="M233.031 169.215C233.39 201.095 255.996 251.655 283.174 251.26C310.353 250.864 331.812 199.663 331.453 167.783C331.28 152.473 325.93 137.866 316.579 127.175C307.228 116.484 294.643 110.585 281.591 110.775C268.54 110.965 256.091 117.228 246.984 128.188C237.878 139.148 232.858 153.905 233.031 169.215Z" fill="#95B8F6"/>
<path d="M278.495 256.893C281.63 254.466 284.792 254.42 287.981 256.754L287.855 245.627L278.369 245.765L278.495 256.893Z" fill="#95B8F6"/>
<path d="M287.891 250.956C286.426 251.853 284.801 252.329 283.149 252.345C281.497 252.361 279.864 251.917 278.386 251.048" stroke="#2F2E41" stroke-width="2"/>
<path opacity="0.4" d="M261.677 159.06C255.947 159.143 251.228 152.672 251.137 144.606C251.046 136.54 255.617 129.934 261.348 129.85C267.078 129.767 271.798 136.238 271.888 144.304C271.98 152.37 267.407 158.977 261.677 159.06Z" fill="white"/>
<path d="M98.9876 164.531C105.037 199.026 139.427 248.483 169.937 241.576C200.448 234.668 215.526 174.013 209.476 139.518C206.571 122.952 197.965 108.383 185.55 99.0146C173.135 89.6464 157.93 86.2469 143.277 89.5638C128.626 92.8807 115.728 102.642 107.422 116.701C99.1161 130.76 96.0821 147.965 98.9876 164.531Z" fill="#FA7865"/>
<path d="M168.505 244.957C175.889 246.108 179.429 256.486 178.436 264.909C177.443 273.333 173.557 281.013 172.397 289.408C171.933 293.615 171.816 297.862 172.046 302.095C172.32 312.235 172.62 322.548 175.466 332.165C178.165 341.287 183.036 349.361 188.224 356.959C198.269 371.671 209.702 385.078 222.314 396.941" stroke="#2F2E41" stroke-width="2"/>
<path d="M165.789 248.632C168.8 245.333 172.253 244.551 176.148 246.287L174.084 234.518L163.725 236.863L165.789 248.632Z" fill="#FA7865"/>
<path d="M175.122 240.436C173.626 241.428 171.906 242.155 170.104 242.557C168.302 242.959 166.47 243.025 164.758 242.748" stroke="#2F2E41" stroke-width="2"/>
<path opacity="0.4" d="M129.519 146.722C135.955 145.265 139.94 137.058 138.42 128.392C136.9 119.726 130.45 113.881 124.014 115.338C117.578 116.795 113.593 125.002 115.113 133.668C116.633 142.334 123.083 148.179 129.519 146.722Z" fill="white"/>
<path d="M1193.56 144.919C1188.04 183.719 1151.61 240.571 1117.54 234.313C1083.46 228.054 1064.66 161.055 1070.18 122.254C1072.83 103.622 1081.87 86.9462 1095.32 75.8962C1108.76 64.8461 1125.51 60.3268 1141.87 63.3323C1158.23 66.3378 1172.87 76.622 1182.56 91.9224C1192.26 107.223 1196.21 126.286 1193.56 144.919Z" fill="#FBD59B"/>
<path d="M1119.46 237.232C1111.28 238.847 1107.71 250.546 1109.12 259.865C1110.53 269.185 1115.14 277.547 1116.74 286.827C1117.4 291.483 1117.69 296.2 1117.58 300.916C1117.64 312.202 1117.68 323.682 1114.85 334.502C1112.18 344.767 1107.04 353.965 1101.53 362.649C1090.88 379.462 1078.62 394.889 1065 408.651" stroke="#2F2E41" stroke-width="2"/>
<path d="M1122.52 242.177C1118.97 238.552 1115 237.823 1110.63 239.992L1112.55 226.449L1124.45 228.634L1122.52 242.177Z" fill="#FBD59B"/>
<path d="M1111.67 232.94C1113.36 234.345 1115.33 235.271 1117.4 235.642C1119.47 236.013 1121.59 235.818 1123.58 235.073" stroke="#2F2E41" stroke-width="2"/>
<path opacity="0.4" d="M1159.2 126.448C1166.39 127.767 1173.34 120.879 1174.74 111.062C1176.14 101.245 1171.45 92.2167 1164.26 90.8971C1157.07 89.5776 1150.12 96.466 1148.72 106.283C1147.33 116.1 1152.02 125.128 1159.2 126.448Z" fill="white"/>
<path d="M640.337 1265.06C1184.53 1265.06 1625.68 1060.45 1625.68 808.059C1625.68 555.665 1184.53 351.059 640.337 351.059C96.1458 351.059 -345.008 555.665 -345.008 808.059C-345.008 1060.45 96.1458 1265.06 640.337 1265.06Z" fill="#95B8F6"/>
<path d="M696.464 290.061V366.152L678.76 406.735V406.74L678.198 408.021L631.327 404.504L613.308 403.15L571.49 400.011V308.992L613.308 310.332L632.009 310.933L679.32 312.451L696.464 290.061Z" fill="#86E3CE"/>
<path opacity="0.1" d="M696.465 294.551V366.153L692.139 376.067V376.071L687.703 386.232V386.236L678.76 406.736L679.759 330.645L679.962 315.296L688.466 304.606V304.603L692.173 299.943L696.465 294.551Z" fill="#545454"/>
<path d="M698.867 269.856V296.434L696.463 300.784L692.17 308.557L688.366 315.442L679.96 330.657L679.759 330.645L567.804 324.103V297.89L568.087 297.544L581.452 281.106L586.29 275.157L595.042 264.395L698.867 269.856Z" fill="#86E3CE"/>
<path opacity="0.1" d="M679.96 304.442V330.656L567.804 324.102V297.888L568.087 297.543L679.96 304.442Z" fill="#545454"/>
<path opacity="0.15" d="M698.868 269.855V296.433L679.962 330.656V304.442L698.868 269.855Z" fill="#545454"/>
<path d="M692.184 282.084L692.173 299.943L692.171 308.556L692.139 376.067V376.07L687.703 386.232L688.367 315.441L688.466 304.606V304.603L688.617 288.609L581.454 281.105L586.291 275.156L692.184 282.084Z" fill="#545454"/>
<path d="M639.585 282.961L632.076 301.488L632.009 310.933L631.326 404.504L613.309 403.15V300.255L622.922 282.961H639.585Z" fill="#545454"/>
<path d="M614.856 284.209C610.518 285.849 605.855 286.035 601.427 284.744C600.565 284.555 599.756 284.129 599.071 283.503C598.334 282.579 597.831 281.446 597.614 280.223C596.831 277.698 596.397 275.049 596.328 272.372C596.381 269.7 597.282 266.911 599.2 265.364C599.591 265.096 599.957 264.784 600.292 264.433C600.692 263.859 600.98 263.194 601.137 262.484C602.449 258.034 604.995 253.336 609.077 252.624C612.843 251.967 616.271 254.955 619.173 257.761L625.543 263.92C626.25 261.761 627.515 259.896 629.171 258.569C630.827 257.242 632.798 256.515 634.825 256.484C636.851 256.453 638.84 257.118 640.527 258.394C642.215 259.669 643.524 261.494 644.282 263.63C648.141 258.69 653.006 254.898 658.451 252.583C659.658 252.073 661.075 251.657 662.175 252.417C662.855 252.987 663.371 253.773 663.658 254.676C665.392 258.988 666.331 263.657 666.419 268.396C666.864 268.223 667.347 268.224 667.792 268.398C668.237 268.572 668.618 268.91 668.874 269.359C669.368 270.272 669.649 271.313 669.692 272.383C669.862 274.037 669.946 275.701 669.946 277.366C669.946 279.122 669.802 281.019 668.794 282.351C667.492 284.072 665.245 284.254 663.249 284.308C664.21 285.277 663.741 287.23 662.677 288.05C661.614 288.871 660.239 288.886 658.953 288.872C653.998 288.817 648.727 288.657 644.604 285.531C642.976 284.297 641.613 282.654 639.981 281.427C635.982 278.42 630.96 278.276 626.331 278.525C622.152 278.749 618.835 282.695 614.856 284.209Z" fill="#545454"/>
<path d="M613.948 282.961C613.948 282.961 572.611 289.514 566.843 317.912L575.495 316.456L581.583 328.834C581.583 328.834 587.992 301.165 606.898 294.611C625.805 288.058 632.535 286.966 632.535 286.966C632.535 286.966 645.673 290.607 657.529 333.932L664.259 323.373L676.115 326.286C676.115 326.286 667.463 292.427 644.07 282.961H613.948Z" fill="#545454"/>
<path d="M495.967 355.186C502.238 355.313 507.355 353.269 507.396 350.621C507.438 347.972 502.388 345.722 496.119 345.595C489.849 345.468 484.731 347.512 484.69 350.16C484.649 352.809 489.698 355.059 495.967 355.186Z" fill="#2F2E41"/>
<path d="M523.225 355.098C529.496 355.225 534.612 353.181 534.654 350.533C534.696 347.884 529.646 345.635 523.376 345.507C517.106 345.38 511.989 347.424 511.947 350.073C511.906 352.721 516.955 354.971 523.225 355.098Z" fill="#2F2E41"/>
<path d="M505.392 333.632C530.159 334.134 550.592 311.927 551.031 284.032C551.468 256.137 531.745 233.116 506.979 232.614C482.211 232.112 461.778 254.319 461.34 282.214C460.902 310.109 480.625 333.13 505.392 333.632Z" fill="#2F2E41"/>
<path d="M498.751 322.624L485.128 322.348L484.695 349.84L498.319 350.116L498.751 322.624Z" fill="#2F2E41"/>
<path d="M525.998 323.177L512.374 322.9L511.943 350.393L525.567 350.669L525.998 323.177Z" fill="#2F2E41"/>
<path d="M516.622 287.812C525.086 287.984 532.069 280.394 532.219 270.86C532.369 261.327 525.628 253.459 517.164 253.287C508.698 253.116 501.715 260.705 501.566 270.239C501.416 279.773 508.156 287.641 516.622 287.812Z" fill="white"/>
<path d="M527.778 272.503C529.799 270.305 529.843 266.663 527.876 264.37C525.91 262.077 522.677 262 520.656 264.199C518.635 266.397 518.59 270.039 520.558 272.332C522.524 274.625 525.756 274.702 527.778 272.503Z" fill="#3F3D56"/>
<path d="M471.596 298.555C474.986 285.139 474.704 273.29 470.964 272.09C467.224 270.89 461.444 280.793 458.053 294.208C454.662 307.624 454.946 319.473 458.686 320.673C462.425 321.873 468.205 311.97 471.596 298.555Z" fill="#2F2E41"/>
<path d="M516.109 298.355C524.342 298.522 532.155 292.776 532.077 297.719C531.999 302.663 524.062 316.424 515.828 316.257C507.595 316.09 500.329 306.178 500.406 301.235C500.484 296.291 507.876 298.188 516.109 298.355Z" fill="white"/>
<path d="M529.282 240.969L521.867 230.616L515.983 222.389L507.447 210.467L501.551 202.242L493.543 191.043C493.412 190.862 493.242 190.723 493.049 190.639C492.856 190.556 492.647 190.531 492.443 190.567C492.238 190.603 492.046 190.698 491.885 190.844C491.724 190.99 491.599 191.181 491.525 191.398L488.186 201.153L485.597 208.688L481.851 219.613L479.274 227.16L475.528 238.084L472.95 245.618L471.031 251.215C470.95 251.43 470.925 251.667 470.96 251.897C470.992 252.125 471.075 252.341 471.201 252.524C471.331 252.705 471.501 252.845 471.694 252.929C471.887 253.012 472.097 253.037 472.301 252.999L528.557 243.105C528.733 243.079 528.901 243.005 529.046 242.891C529.191 242.777 529.31 242.626 529.393 242.449C529.425 242.394 529.454 242.335 529.476 242.274C529.545 242.056 529.566 241.823 529.535 241.594C529.505 241.363 529.417 241.146 529.282 240.969Z" fill="#86E3CE"/>
<path d="M507.445 210.465L485.596 208.687L488.184 201.152L501.55 202.24L507.445 210.465Z" fill="#3F3D56"/>
<path d="M521.867 230.615L479.274 227.159L481.851 219.612L515.983 222.388L521.867 230.615Z" fill="#3F3D56"/>
<path d="M529.392 242.448C529.309 242.625 529.19 242.776 529.045 242.89C528.899 243.005 528.732 243.078 528.556 243.104L501.205 247.914L472.949 245.617L475.527 238.083L529.392 242.448Z" fill="#3F3D56"/>
<path d="M491.551 195.918C496.737 196.023 501.015 191.373 501.108 185.532C501.199 179.69 497.069 174.87 491.883 174.765C486.696 174.659 482.417 179.31 482.326 185.151C482.234 190.992 486.364 195.813 491.551 195.918Z" fill="#86E3CE"/>
<path d="M495.967 355.186C502.238 355.313 507.355 353.269 507.396 350.621C507.438 347.972 502.388 345.722 496.119 345.595C489.849 345.468 484.731 347.512 484.69 350.16C484.649 352.809 489.698 355.059 495.967 355.186Z" fill="#2F2E41"/>
<path d="M523.225 355.098C529.496 355.225 534.612 353.181 534.654 350.533C534.696 347.884 529.646 345.635 523.376 345.507C517.106 345.38 511.989 347.424 511.947 350.073C511.906 352.721 516.955 354.971 523.225 355.098Z" fill="#2F2E41"/>
<path d="M562.657 280.438C574.768 277.521 583.926 271.684 583.112 267.402C582.298 263.119 571.819 262.012 559.708 264.929C547.597 267.846 538.439 273.683 539.253 277.965C540.068 282.248 550.546 283.355 562.657 280.438Z" fill="#2F2E41"/>
<path d="M505.392 333.632C530.159 334.134 550.592 311.927 551.031 284.032C551.468 256.137 531.745 233.116 506.979 232.614C482.211 232.112 461.778 254.319 461.34 282.214C460.902 310.109 480.625 333.13 505.392 333.632Z" fill="#2F2E41"/>
<path d="M498.751 322.624L485.128 322.348L484.695 349.84L498.319 350.116L498.751 322.624Z" fill="#2F2E41"/>
<path d="M525.998 323.177L512.374 322.9L511.943 350.393L525.567 350.669L525.998 323.177Z" fill="#2F2E41"/>
<path d="M516.622 287.812C525.086 287.984 532.069 280.394 532.219 270.86C532.369 261.327 525.628 253.459 517.164 253.287C508.698 253.116 501.715 260.705 501.566 270.239C501.416 279.773 508.156 287.641 516.622 287.812Z" fill="white"/>
<path d="M527.778 272.503C529.799 270.305 529.843 266.663 527.876 264.37C525.91 262.077 522.677 262 520.656 264.199C518.635 266.397 518.59 270.039 520.558 272.332C522.524 274.625 525.756 274.702 527.778 272.503Z" fill="#3F3D56"/>
<path d="M471.596 298.555C474.986 285.139 474.704 273.29 470.964 272.09C467.224 270.89 461.444 280.793 458.053 294.208C454.662 307.624 454.946 319.473 458.686 320.673C462.425 321.873 468.205 311.97 471.596 298.555Z" fill="#2F2E41"/>
<path d="M516.109 298.355C524.342 298.522 532.155 292.776 532.077 297.719C531.999 302.663 524.062 316.424 515.828 316.257C507.595 316.09 500.329 306.178 500.406 301.235C500.484 296.291 507.876 298.188 516.109 298.355Z" fill="white"/>
<path d="M529.282 240.969L521.867 230.616L515.983 222.389L507.447 210.467L501.551 202.242L493.543 191.043C493.412 190.862 493.242 190.723 493.049 190.639C492.856 190.556 492.647 190.531 492.443 190.567C492.238 190.603 492.046 190.698 491.885 190.844C491.724 190.99 491.599 191.181 491.525 191.398L488.186 201.153L485.597 208.688L481.851 219.613L479.274 227.16L475.528 238.084L472.95 245.618L471.031 251.215C470.95 251.43 470.925 251.667 470.96 251.897C470.992 252.125 471.075 252.341 471.201 252.524C471.331 252.705 471.501 252.845 471.694 252.929C471.887 253.012 472.097 253.037 472.301 252.999L528.557 243.105C528.733 243.079 528.901 243.005 529.046 242.891C529.191 242.777 529.31 242.626 529.393 242.449C529.425 242.394 529.454 242.335 529.476 242.274C529.545 242.056 529.566 241.823 529.535 241.594C529.505 241.363 529.417 241.146 529.282 240.969Z" fill="#86E3CE"/>
<path d="M507.445 210.465L485.596 208.687L488.184 201.152L501.55 202.24L507.445 210.465Z" fill="#3F3D56"/>
<path d="M521.867 230.615L479.274 227.159L481.851 219.612L515.983 222.388L521.867 230.615Z" fill="#3F3D56"/>
<path d="M529.392 242.448C529.309 242.625 529.19 242.776 529.045 242.89C528.899 243.005 528.732 243.078 528.556 243.104L501.205 247.914L472.949 245.617L475.527 238.083L529.392 242.448Z" fill="#3F3D56"/>
<path d="M491.551 195.918C496.737 196.023 501.015 191.373 501.108 185.532C501.199 179.69 497.069 174.87 491.883 174.765C486.696 174.659 482.417 179.31 482.326 185.151C482.234 190.992 486.364 195.813 491.551 195.918Z" fill="#86E3CE"/>
</g>
</g>
</g>
</g>
<defs>
<clipPath id="clip0_141_2">
<rect width="1280" height="461" fill="white"/>
</clipPath>
<clipPath id="clip1_141_2">
<rect width="1280" height="1215" fill="white"/>
</clipPath>
<clipPath id="clip2_141_2">
<rect width="1491" height="461" fill="white" transform="translate(-88)"/>
</clipPath>
</defs>
</svg>
