<svg width="131" height="50" viewBox="0 0 131 50" fill="none" xmlns="http://www.w3.org/2000/svg">
<path d="M31.2656 35.4219C31.2656 37.2656 30.7812 38.8281 29.8125 40.1094C28.8438 41.3594 27.625 42.375 26.1562 43.1562C24.6875 43.9375 23.0938 44.5 21.375 44.8438C19.6562 45.2188 18.0469 45.4062 16.5469 45.4062C14.6719 45.4062 12.7812 45.1094 10.875 44.5156C9 43.9531 7.29688 43.125 5.76562 42.0312L2.0625 49.5781L3.75 32.0938C4.15625 33.5 4.75 34.7812 5.53125 35.9375C6.34375 37.0625 7.28125 38.0312 8.34375 38.8438C9.40625 39.6562 10.5781 40.2812 11.8594 40.7188C13.1719 41.1562 14.5625 41.375 16.0312 41.375C16.5625 41.375 17.1875 41.3281 17.9062 41.2344C18.6562 41.1094 19.3594 40.9062 20.0156 40.625C20.7031 40.3438 21.2812 39.9688 21.75 39.5C22.2188 39.0312 22.4531 38.4531 22.4531 37.7656C22.4531 36.8906 22.0938 36.125 21.375 35.4688C20.6875 34.8125 19.8594 34.2656 18.8906 33.8281C17.9219 33.3594 16.9219 32.9844 15.8906 32.7031C14.8594 32.4219 14.0312 32.2188 13.4062 32.0938C12.125 31.8438 10.7344 31.5 9.23438 31.0625C7.73438 30.625 6.32812 30.0469 5.01562 29.3281C3.73438 28.5781 2.65625 27.6562 1.78125 26.5625C0.90625 25.4375 0.46875 24.0625 0.46875 22.4375C0.46875 20.5625 0.90625 19 1.78125 17.75C2.65625 16.4688 3.76562 15.4531 5.10938 14.7031C6.48438 13.9531 7.98438 13.4219 9.60938 13.1094C11.2656 12.7969 12.875 12.6406 14.4375 12.6406C16.6875 12.6406 18.7031 12.9062 20.4844 13.4375C22.2656 13.9688 24.1406 14.7812 26.1094 15.875L30.7969 10.1562L29.0625 25.5781C28.2812 24.3281 27.3594 23.1562 26.2969 22.0625C25.2656 20.9688 24.125 20.0156 22.875 19.2031C21.625 18.3594 20.2812 17.7031 18.8438 17.2344C17.4375 16.7344 15.9844 16.4844 14.4844 16.4844C13.9531 16.4844 13.3281 16.5625 12.6094 16.7188C11.9219 16.8438 11.25 17.0625 10.5938 17.375C9.9375 17.6562 9.375 18.0312 8.90625 18.5C8.46875 18.9688 8.25 19.5469 8.25 20.2344C8.25 20.8906 8.51562 21.4531 9.04688 21.9219C9.60938 22.3594 10.2656 22.7344 11.0156 23.0469C11.7969 23.3281 12.5781 23.5625 13.3594 23.75C14.1406 23.9375 14.7656 24.0781 15.2344 24.1719C16.6406 24.4844 18.2656 24.9062 20.1094 25.4375C21.9531 25.9688 23.7031 26.6719 25.3594 27.5469C27.0156 28.4219 28.4062 29.5 29.5312 30.7812C30.6875 32.0625 31.2656 33.6094 31.2656 35.4219ZM62.5312 44.4688L47.6719 45.0781L48 42.4531C47 42.5781 46 42.6562 45 42.6875C44 42.6875 43 42.6875 42 42.6875C41.0938 42.6875 40.0938 42.5781 39 42.3594C37.9062 42.1406 36.8906 41.7969 35.9531 41.3281C35.0156 40.8281 34.2344 40.1875 33.6094 39.4062C32.9844 38.625 32.6719 37.6719 32.6719 36.5469C32.6719 35.2969 32.9688 34.2344 33.5625 33.3594C34.1562 32.4844 34.9062 31.7812 35.8125 31.25C36.75 30.7188 37.7812 30.3281 38.9062 30.0781C40.0312 29.8281 41.125 29.7031 42.1875 29.7031C43.5 29.7031 44.7812 29.7656 46.0312 29.8906C47.2812 30.0156 48.5469 30.125 49.8281 30.2188C49.8906 29.8125 49.9375 29.4062 49.9688 29C50 28.5625 50.0156 28.125 50.0156 27.6875C50.0156 26.8438 49.9375 26.0156 49.7812 25.2031C49.6562 24.3906 49.4062 23.6719 49.0312 23.0469C48.6875 22.3906 48.1875 21.875 47.5312 21.5C46.9062 21.125 46.0938 20.9375 45.0938 20.9375C44.1562 20.9375 43.2969 21.0938 42.5156 21.4062C41.7656 21.6875 41.0938 22.1875 40.5 22.9062C40.9375 23.25 41.2344 23.6406 41.3906 24.0781C41.5469 24.4844 41.625 24.9531 41.625 25.4844V25.7656C41.1562 27.9531 39.7812 29.0469 37.5 29.0469C36.4688 29.0469 35.625 28.6875 34.9688 27.9688C34.3125 27.2188 33.9844 26.3438 33.9844 25.3438C33.9844 23.9688 34.375 22.7812 35.1562 21.7812C35.9375 20.7812 36.8906 19.9531 38.0156 19.2969C39.1719 18.6406 40.4062 18.1562 41.7188 17.8438C43.0625 17.5312 44.2969 17.375 45.4219 17.375C49.0156 17.375 51.8125 18.2031 53.8125 19.8594C55.8438 21.5156 56.8594 24.2188 56.8594 27.9688C56.8594 28.375 56.8438 28.7812 56.8125 29.1875C56.8125 29.5938 56.7969 30 56.7656 30.4062L55.6406 41.1875C56.8281 41.7188 57.9844 42.2656 59.1094 42.8281C60.2344 43.3906 61.375 43.9375 62.5312 44.4688ZM49.3125 33.3594C48.5 33.2656 47.6875 33.1719 46.875 33.0781C46.0625 32.9531 45.25 32.8906 44.4375 32.8906C43.9062 32.8906 43.375 32.9531 42.8438 33.0781C42.3438 33.1719 41.875 33.3438 41.4375 33.5938C41.0312 33.8438 40.7031 34.1875 40.4531 34.625C40.2031 35.0312 40.0781 35.5469 40.0781 36.1719C40.0781 36.6406 40.1875 37.0625 40.4062 37.4375C40.625 37.7812 40.9062 38.0781 41.25 38.3281C41.625 38.5781 42.0156 38.7656 42.4219 38.8906C42.8594 39.0156 43.2812 39.0781 43.6875 39.0781C44.5 39.0781 45.3125 39.0312 46.125 38.9375C46.9688 38.8438 47.7812 38.75 48.5625 38.6562L49.3125 33.3594ZM93.9375 40.9062L73.5938 41.0469L82.3594 37.6719V29.2344C82.3594 27.5781 81.9375 26.2656 81.0938 25.2969C80.2812 24.2969 79.0312 23.7969 77.3438 23.7969C76.5 23.7969 75.5938 23.9375 74.625 24.2188C73.6875 24.5 72.9844 25.0312 72.5156 25.8125L71.4844 34.9062C71.7969 35.1562 72.2812 35.4688 72.9375 35.8438C73.625 36.2188 74.3281 36.5938 75.0469 36.9688C75.8594 37.4062 76.7344 37.8594 77.6719 38.3281L58.4062 38.4219L66.2812 35.1875L64.875 23.8906C63.9688 23.6406 62.9219 23.3594 61.7344 23.0469C60.5469 22.7031 59.4062 22.3594 58.3125 22.0156C57.0625 21.6406 55.7656 21.25 54.4219 20.8438L73.0312 17.75L72.7969 20.6094C73.8906 20.1719 75.0625 19.7344 76.3125 19.2969C77.5625 18.8594 78.7812 18.6406 79.9688 18.6406C82.8125 18.6406 85.0156 19.4062 86.5781 20.9375C88.1406 22.4688 88.9219 24.6719 88.9219 27.5469C88.9219 28.2656 88.875 29.0781 88.7812 29.9844C88.7188 30.8594 88.625 31.75 88.5 32.6562C88.375 33.5625 88.2344 34.4688 88.0781 35.375C87.9531 36.25 87.8281 37.0625 87.7031 37.8125L93.9375 40.9062ZM111.609 13.7188L111.188 18.125C109.656 18 108.141 17.8906 106.641 17.7969C105.141 17.6719 103.625 17.5312 102.094 17.375C101.844 20.3438 101.578 23.2969 101.297 26.2344C101.016 29.1719 100.734 32.125 100.453 35.0938C100.453 35.25 100.438 35.4062 100.406 35.5625C100.375 35.7188 100.359 35.875 100.359 36.0312C100.359 36.4688 100.406 36.9219 100.5 37.3906C100.594 37.8281 100.75 38.2344 100.969 38.6094C101.188 38.9531 101.469 39.25 101.812 39.5C102.188 39.7188 102.641 39.8281 103.172 39.8281C104.203 39.8281 105.109 39.5938 105.891 39.125C106.672 38.625 107.328 38 107.859 37.25C108.391 36.5 108.812 35.6719 109.125 34.7656C109.438 33.8281 109.641 32.9062 109.734 32C110.109 33.4688 110.297 34.9219 110.297 36.3594C110.297 37.7344 110.078 38.9844 109.641 40.1094C109.203 41.2031 108.594 42.1562 107.812 42.9688C107.031 43.75 106.094 44.3594 105 44.7969C103.906 45.2344 102.703 45.4531 101.391 45.4531C100.016 45.4531 98.8125 45.2188 97.7812 44.75C96.75 44.2812 95.8906 43.6406 95.2031 42.8281C94.5469 41.9844 94.0469 41 93.7031 39.875C93.3906 38.75 93.2344 37.5469 93.2344 36.2656C93.2344 36.0156 93.2344 35.7812 93.2344 35.5625C93.2344 35.3438 93.25 35.1094 93.2812 34.8594C93.5312 31.8281 93.7656 28.8438 93.9844 25.9062C94.2344 22.9375 94.4531 19.9375 94.6406 16.9062C93.7969 16.8438 92.9531 16.7812 92.1094 16.7188C91.2969 16.625 90.4688 16.5312 89.625 16.4375L89.8125 12.7344C90.4688 12.7031 91.1562 12.5938 91.875 12.4062C92.5938 12.2188 93.2812 11.9688 93.9375 11.6562C94.625 11.3438 95.25 10.9688 95.8125 10.5312C96.4062 10.0938 96.8906 9.59375 97.2656 9.03125C97.6094 8.46875 97.9219 7.85938 98.2031 7.20312C98.5156 6.54688 98.7812 5.85938 99 5.14062C99.25 4.42187 99.4531 3.71875 99.6094 3.03125C99.7656 2.3125 99.875 1.625 99.9375 0.96875L103.781 1.0625L102.562 12.7812L111.609 13.7188ZM125.344 10.8594C125.344 11.5469 125.203 12.2031 124.922 12.8281C124.672 13.4219 124.312 13.9531 123.844 14.4219C123.406 14.8594 122.875 15.2188 122.25 15.5C121.656 15.75 121.016 15.875 120.328 15.875C119.641 15.875 119 15.75 118.406 15.5C117.812 15.2188 117.281 14.8594 116.812 14.4219C116.375 13.9531 116.016 13.4219 115.734 12.8281C115.484 12.2031 115.359 11.5469 115.359 10.8594C115.359 10.1719 115.484 9.53125 115.734 8.9375C116.016 8.34375 116.375 7.82813 116.812 7.39062C117.281 6.92188 117.812 6.5625 118.406 6.3125C119 6.03125 119.641 5.89062 120.328 5.89062C121.016 5.89062 121.656 6.03125 122.25 6.3125C122.875 6.5625 123.406 6.92188 123.844 7.39062C124.312 7.82813 124.672 8.34375 124.922 8.9375C125.203 9.53125 125.344 10.1719 125.344 10.8594ZM130.828 44.0938L109.828 43.7188L117.609 38.8906L116.953 23.3281L108 19.1094H125.203L123.656 39.2188L130.828 44.0938Z" fill="#4E5340"/>
</svg>
